<svg xmlns="http://www.w3.org/2000/svg" viewBox="0 0 651.01 463.11"><defs><style>.cls-1{fill:#354755;}</style></defs><title>Asset 7</title><g id="Layer_2" data-name="Layer 2"><g id="Layer_1-2" data-name="Layer 1"><path class="cls-1" d="M189.56,27.82c10.35-2.42,14.47-13.9,17-23l-2.94-.4c-.18,3.43-.37,6.87-.53,10.31a37.39,37.39,0,0,0,.49,9.45c1.06,5,4.49,10,9.76,11.06l.4-2.94a32.56,32.56,0,0,0-26.62,12.79l2.74,1.16c.75-2.81,2.81-5,4.19-7.47a10.53,10.53,0,0,0,1.26-7.58c-1.11-4.89-5.71-8.89-10.8-8.73-1.92.06-1.93,3.06,0,3a8.2,8.2,0,0,1,8,7.4c.2,2.27-.89,4.21-2.1,6C189.12,41,187.66,43,187,45.47c-.47,1.76,1.76,2.44,2.74,1.16a29.42,29.42,0,0,1,24-11.31c1.66,0,2.07-2.59.4-3-4.81-1-7.27-5.8-7.9-10.3a44.37,44.37,0,0,1-.11-8.23c.16-3.14.33-6.27.49-9.4.08-1.72-2.5-2-2.95-.4-2.27,8-5.74,18.74-15,20.89-1.88.44-1.08,3.33.8,2.89Z" transform="translate(0 -2.98)"/><path class="cls-1" d="M140.86,61.23c5.21-1.26,7.27-7,8.57-11.55l-1.47-.2c-.26,4.9-1.79,14,4.88,15.49l.2-1.47a16.42,16.42,0,0,0-13.38,6.43l1.37.58c.43-1.53,1.58-2.66,2.26-4.05a5.18,5.18,0,0,0,.47-3.56,5.63,5.63,0,0,0-5.41-4.34.75.75,0,0,0,0,1.5,4.12,4.12,0,0,1,4.05,4.11c0,2.21-2.23,3.85-2.81,5.94-.25.88.88,1.21,1.37.58A14.82,14.82,0,0,1,153,65a.75.75,0,0,0,.2-1.47c-2.5-.57-3.72-3.05-4-5.41a52,52,0,0,1,.22-8.64.76.76,0,0,0-1.48-.2c-1.15,4.06-2.88,9.38-7.52,10.5-.93.23-.54,1.68.4,1.45Z" transform="translate(0 -2.98)"/><path class="cls-1" d="M269.46,113.2c4.49-1.08,6.28-6,7.41-10l-1.48-.2c-.22,4.25-1.51,12.06,4.26,13.36l.2-1.47a14.16,14.16,0,0,0-11.54,5.56l1.37.58c.36-1.3,1.34-2.26,1.93-3.45a4.56,4.56,0,0,0,.4-3.12,4.93,4.93,0,0,0-4.73-3.8.75.75,0,0,0,0,1.5,3.43,3.43,0,0,1,3.36,3.41c0,1.87-1.91,3.29-2.41,5.06-.24.88.89,1.21,1.37.58a12.62,12.62,0,0,1,10.25-4.82.75.75,0,0,0,.2-1.47c-2.1-.48-3.11-2.56-3.34-4.54a45.5,45.5,0,0,1,.18-7.38.75.75,0,0,0-1.47-.2c-1,3.44-2.43,8-6.36,8.92-.94.22-.54,1.67.4,1.44Z" transform="translate(0 -2.98)"/><path class="cls-1" d="M186.66,172.73c4.5-1.09,6.28-6,7.41-10l-1.47-.2c-.22,4.26-1.52,12.07,4.26,13.37l.2-1.47A14.17,14.17,0,0,0,185.51,180l1.37.58c.36-1.29,1.34-2.25,1.93-3.44a4.57,4.57,0,0,0,.41-3.12,4.93,4.93,0,0,0-4.74-3.8.75.75,0,0,0,0,1.5,3.43,3.43,0,0,1,3.37,3.41c0,1.87-1.92,3.28-2.41,5.05-.25.89.88,1.21,1.37.58A12.6,12.6,0,0,1,197.06,176a.76.76,0,0,0,.2-1.48c-2.1-.47-3.12-2.55-3.35-4.53a44.52,44.52,0,0,1,.19-7.39.76.76,0,0,0-1.48-.19c-1,3.43-2.43,8-6.36,8.91-.93.23-.54,1.67.4,1.45Z" transform="translate(0 -2.98)"/><path class="cls-1" d="M101,178.76c11-2.56,15.4-14.8,18.12-24.46l-2.94-.4c-.18,3.5-.37,7-.54,10.48a41.88,41.88,0,0,0,.46,10.43c1.11,5.38,4.73,10.7,10.38,11.9l.4-3a34.59,34.59,0,0,0-28.32,13.6l2.74,1.16c.79-3,3-5.3,4.47-8a11.19,11.19,0,0,0,1.34-8.05c-1.17-5.16-6-9.41-11.42-9.23-1.93.06-1.94,3.06,0,3,4.35-.14,8.24,3.62,8.67,7.9.24,2.43-.9,4.53-2.19,6.5-1.47,2.25-3.07,4.41-3.76,7.05-.47,1.76,1.76,2.44,2.74,1.16a31.51,31.51,0,0,1,25.73-12.12c1.67.05,2.07-2.6.4-2.95-5.22-1.1-7.87-6.32-8.52-11.21a49.94,49.94,0,0,1-.07-9.15c.16-3.18.32-6.37.49-9.55.09-1.71-2.5-2-3-.4-2.43,8.59-6.15,20.07-16,22.37-1.88.44-1.09,3.33.79,2.89Z" transform="translate(0 -2.98)"/><path class="cls-1" d="M167.6,118c10.35-2.42,14.48-13.9,17-23l-2.94-.4c-.18,3.44-.37,6.87-.53,10.31a37.37,37.37,0,0,0,.49,9.45c1.06,5,4.49,10,9.76,11.07l.4-2.95a32.54,32.54,0,0,0-26.62,12.8l2.74,1.15c.75-2.81,2.81-5,4.19-7.46a10.57,10.57,0,0,0,1.26-7.59c-1.11-4.88-5.71-8.89-10.8-8.73-1.92.07-1.93,3.07,0,3a8.21,8.21,0,0,1,8,7.41c.2,2.26-.89,4.2-2.1,6-1.37,2.09-2.83,4.09-3.48,6.54-.47,1.76,1.76,2.44,2.74,1.16a29.42,29.42,0,0,1,24-11.31c1.66,0,2.07-2.59.4-2.94-4.81-1-7.27-5.8-7.9-10.31a44.37,44.37,0,0,1-.11-8.23c.16-3.13.33-6.26.49-9.4.08-1.71-2.5-2-2.95-.4-2.27,8-5.74,18.74-14.95,20.89-1.88.44-1.08,3.34.8,2.9Z" transform="translate(0 -2.98)"/><path class="cls-1" d="M215.46,144.54c5.21-1.26,7.26-7,8.57-11.56l-1.48-.2c-.25,4.9-1.78,14,4.89,15.5l.2-1.47a16.4,16.4,0,0,0-13.38,6.43l1.37.57c.43-1.52,1.57-2.65,2.26-4.05a5.15,5.15,0,0,0,.47-3.55,5.66,5.66,0,0,0-5.42-4.35.75.75,0,0,0,0,1.5,4.13,4.13,0,0,1,4.06,4.12c0,2.2-2.23,3.85-2.82,5.94-.24.88.89,1.21,1.37.57a14.88,14.88,0,0,1,12.09-5.68.76.76,0,0,0,.2-1.48c-2.51-.56-3.72-3-4-5.41a53.11,53.11,0,0,1,.21-8.64.75.75,0,0,0-1.47-.2c-1.15,4.06-2.88,9.39-7.52,10.51-.94.23-.54,1.67.4,1.45Z" transform="translate(0 -2.98)"/><path class="cls-1" d="M352.16,146c4.5-1.09,6.28-6,7.41-10l-1.48-.2c-.21,4.25-1.51,12.06,4.27,13.36l.19-1.47A14.15,14.15,0,0,0,351,153.24l1.37.57c.36-1.29,1.34-2.25,1.93-3.44a4.57,4.57,0,0,0,.41-3.12,5,5,0,0,0-4.74-3.8.75.75,0,0,0,0,1.5,3.42,3.42,0,0,1,3.36,3.41c0,1.87-1.91,3.28-2.41,5.06-.24.88.89,1.21,1.38.57a12.59,12.59,0,0,1,10.24-4.81.75.75,0,0,0,.2-1.47c-2.1-.48-3.11-2.56-3.34-4.54a45.5,45.5,0,0,1,.18-7.38.75.75,0,0,0-1.47-.2c-1,3.43-2.43,8-6.36,8.91-.94.23-.54,1.68.4,1.45Z" transform="translate(0 -2.98)"/><path class="cls-1" d="M269.36,205.48c4.5-1.09,6.29-6,7.41-10l-1.47-.2c-.22,4.26-1.51,12.07,4.26,13.37l.2-1.47a14.17,14.17,0,0,0-11.55,5.55l1.37.58c.37-1.29,1.35-2.26,1.93-3.44a4.59,4.59,0,0,0,.41-3.13,4.93,4.93,0,0,0-4.74-3.79.75.75,0,0,0,0,1.5,3.43,3.43,0,0,1,3.37,3.41c-.05,1.87-1.92,3.28-2.41,5.05-.25.88.88,1.21,1.37.58a12.57,12.57,0,0,1,10.25-4.81.76.76,0,0,0,.2-1.48c-2.1-.47-3.12-2.55-3.35-4.54a44.43,44.43,0,0,1,.19-7.38.76.76,0,0,0-1.48-.2c-1,3.44-2.43,8-6.35,8.92a.75.75,0,0,0,.39,1.45Z" transform="translate(0 -2.98)"/><path class="cls-1" d="M96.28,63.9C105.22,61.8,108.79,52,111,44.08l-3-.4q-.22,4.29-.44,8.57a33,33,0,0,0,.41,8.36c.93,4.4,3.91,8.67,8.51,9.66l.4-2.94a28.09,28.09,0,0,0-23,11l2.74,1.16c.64-2.4,2.41-4.24,3.58-6.38a9.26,9.26,0,0,0,1.08-6.6,9.8,9.8,0,0,0-9.45-7.64c-1.93,0-1.93,3,0,3a6.8,6.8,0,0,1,6.68,6.32c.1,2-1,3.61-2,5.18a18.54,18.54,0,0,0-2.79,5.32c-.47,1.76,1.77,2.43,2.75,1.16A25,25,0,0,1,117,70.33c1.67,0,2.07-2.59.4-3-4.15-.9-6.18-5.07-6.65-9-.57-4.83.12-9.9.37-14.74.09-1.71-2.49-2-2.94-.39C106.2,50.08,103.29,59.17,95.48,61c-1.87.44-1.08,3.34.8,2.89Z" transform="translate(0 -2.98)"/><path class="cls-1" d="M259,156.11c8.94-2.11,12.51-12,14.73-19.82l-2.94-.4q-.22,4.28-.44,8.57a33,33,0,0,0,.41,8.36c.92,4.39,3.91,8.66,8.51,9.66l.4-2.95a28.1,28.1,0,0,0-23,11.06l2.74,1.15c.65-2.4,2.41-4.24,3.59-6.38a9.23,9.23,0,0,0,1.07-6.6,9.8,9.8,0,0,0-9.44-7.64c-1.93,0-1.94,3,0,3a6.8,6.8,0,0,1,6.67,6.33c.11,2-1,3.6-2,5.17a18.18,18.18,0,0,0-2.79,5.32c-.47,1.76,1.76,2.44,2.74,1.16a25,25,0,0,1,20.38-9.57c1.66.05,2.07-2.59.4-2.95-4.15-.89-6.19-5.07-6.65-9-.57-4.83.12-9.9.37-14.74.09-1.72-2.49-2-2.95-.4-1.92,6.8-4.84,15.88-12.64,17.72-1.88.45-1.08,3.34.8,2.9Z" transform="translate(0 -2.98)"/><path class="cls-1" d="M29.2,50.86c5.54-1.34,7.72-7.41,9.11-12.3l-1.48-.2c-.26,5.2-1.9,14.89,5.18,16.49l.2-1.47A17.45,17.45,0,0,0,28,60.22l1.38.57C29.8,59.16,31,58,31.77,56.46a5.57,5.57,0,0,0,.49-3.76,6,6,0,0,0-5.73-4.6.75.75,0,0,0,0,1.5A4.46,4.46,0,0,1,30.91,54c-.05,2.37-2.39,4.12-3,6.35-.25.89.88,1.22,1.37.58a15.89,15.89,0,0,1,12.94-6.09.76.76,0,0,0,.2-1.48c-2.69-.61-4-3.27-4.3-5.81-.36-3,.07-6.2.22-9.23a.75.75,0,0,0-1.47-.2c-1.23,4.35-3.09,10.05-8.06,11.25-.94.23-.54,1.67.4,1.45Z" transform="translate(0 -2.98)"/><path class="cls-1" d="M98.16,123.61c5.54-1.33,7.73-7.4,9.11-12.29l-1.47-.2c-.27,5.2-1.91,14.89,5.18,16.49l.2-1.47A17.42,17.42,0,0,0,96.94,133l1.37.57c.45-1.63,1.68-2.84,2.42-4.33a5.57,5.57,0,0,0,.49-3.76,6,6,0,0,0-5.73-4.6.75.75,0,0,0,0,1.5,4.46,4.46,0,0,1,4.38,4.44c-.05,2.37-2.39,4.12-3,6.35-.24.89.88,1.22,1.37.58a15.91,15.91,0,0,1,13-6.09.76.76,0,0,0,.19-1.48c-2.69-.61-4-3.27-4.3-5.81a55.83,55.83,0,0,1,.23-9.23.76.76,0,0,0-1.48-.2c-1.23,4.35-3.09,10-8.06,11.25a.75.75,0,0,0,.4,1.44Z" transform="translate(0 -2.98)"/><path class="cls-1" d="M305.26,233.36c8.94-2.11,12.51-12,14.74-19.82l-2.95-.4c-.15,2.86-.3,5.71-.44,8.57a33,33,0,0,0,.41,8.36c.92,4.39,3.91,8.67,8.51,9.66l.4-2.95a28.1,28.1,0,0,0-23,11.06l2.75,1.15c.64-2.4,2.41-4.23,3.58-6.38a9.24,9.24,0,0,0,1.08-6.6,9.81,9.81,0,0,0-9.45-7.64c-1.93.06-1.93,3.06,0,3a6.82,6.82,0,0,1,6.68,6.33c.1,2-1,3.61-2,5.17a18.35,18.35,0,0,0-2.79,5.33c-.47,1.76,1.77,2.43,2.74,1.15a25,25,0,0,1,20.38-9.57c1.67.05,2.07-2.58.4-2.94-4.15-.9-6.18-5.07-6.65-9-.57-4.83.12-9.9.37-14.74.09-1.71-2.49-2-2.95-.4-1.92,6.8-4.83,15.89-12.64,17.73-1.87.44-1.08,3.33.8,2.89Z" transform="translate(0 -2.98)"/><path class="cls-1" d="M263.56,261.85c4.49-1.09,6.28-6,7.41-10l-1.48-.2c-.21,4.26-1.51,12.07,4.26,13.37l.2-1.47a14.16,14.16,0,0,0-11.54,5.55l1.37.58c.36-1.29,1.34-2.26,1.93-3.44a4.58,4.58,0,0,0,.4-3.13,4.92,4.92,0,0,0-4.73-3.79.75.75,0,0,0,0,1.5,3.42,3.42,0,0,1,3.36,3.41c0,1.87-1.91,3.28-2.41,5.05-.24.88.89,1.21,1.37.58A12.58,12.58,0,0,1,274,265.08a.76.76,0,0,0,.2-1.48c-2.1-.47-3.11-2.55-3.34-4.54a45.53,45.53,0,0,1,.18-7.38.75.75,0,0,0-1.47-.2c-1,3.44-2.43,8-6.36,8.92-.94.23-.54,1.67.4,1.45Z" transform="translate(0 -2.98)"/><path class="cls-1" d="M361.2,293c4.5-1.08,6.28-6,7.41-10l-1.48-.2c-.21,4.25-1.51,12.06,4.26,13.36l.2-1.47a14.15,14.15,0,0,0-11.54,5.56l1.37.58c.36-1.3,1.34-2.26,1.93-3.45a4.63,4.63,0,0,0,.41-3.12,5,5,0,0,0-4.74-3.8.75.75,0,0,0,0,1.5,3.42,3.42,0,0,1,3.36,3.41c0,1.87-1.91,3.29-2.41,5.06-.24.88.89,1.21,1.38.58a12.6,12.6,0,0,1,10.24-4.82.75.75,0,0,0,.2-1.47c-2.1-.48-3.11-2.56-3.34-4.54a45.5,45.5,0,0,1,.18-7.38.75.75,0,0,0-1.47-.2c-1,3.44-2.43,8-6.36,8.92-.94.22-.54,1.67.4,1.44Z" transform="translate(0 -2.98)"/><path class="cls-1" d="M297.29,387.13c4.5-1.09,6.28-6,7.41-10l-1.48-.2c-.21,4.26-1.51,12.07,4.27,13.37l.19-1.47a14.16,14.16,0,0,0-11.54,5.55l1.37.58c.36-1.29,1.34-2.26,1.93-3.44a4.59,4.59,0,0,0,.41-3.13,4.93,4.93,0,0,0-4.74-3.79.75.75,0,0,0,0,1.5,3.42,3.42,0,0,1,3.36,3.41c0,1.87-1.91,3.28-2.4,5-.25.88.88,1.21,1.37.58a12.56,12.56,0,0,1,10.24-4.81.76.76,0,0,0,.2-1.48c-2.1-.47-3.11-2.55-3.34-4.54a45.53,45.53,0,0,1,.18-7.38.75.75,0,0,0-1.47-.2c-1,3.44-2.43,8-6.36,8.92-.94.23-.54,1.67.4,1.45Z" transform="translate(0 -2.98)"/><path class="cls-1" d="M183.86,370.51c8.94-2.11,12.51-12,14.74-19.83l-2.95-.39c-.14,2.85-.3,5.71-.44,8.56a33,33,0,0,0,.41,8.36c.93,4.4,3.91,8.67,8.51,9.66l.4-2.94a28.09,28.09,0,0,0-23,11.05l2.74,1.16c.64-2.4,2.41-4.24,3.58-6.38a9.24,9.24,0,0,0,1.08-6.6,9.8,9.8,0,0,0-9.45-7.64c-1.93.05-1.93,3.05,0,3a6.8,6.8,0,0,1,6.68,6.32c.1,2-1,3.61-2,5.18a18.67,18.67,0,0,0-2.79,5.32c-.47,1.76,1.77,2.44,2.75,1.16a25,25,0,0,1,20.37-9.57c1.67.05,2.07-2.59.4-2.95-4.15-.89-6.18-5.07-6.65-9-.57-4.83.12-9.9.37-14.73.09-1.72-2.49-2-2.94-.4-1.93,6.8-4.84,15.88-12.65,17.72-1.87.45-1.08,3.34.8,2.9Z" transform="translate(0 -2.98)"/><path class="cls-1" d="M287,337.76c8.93-2.11,12.51-12,14.73-19.82l-2.94-.4c-.15,2.85-.31,5.71-.44,8.57a32.52,32.52,0,0,0,.41,8.36c.92,4.39,3.91,8.66,8.5,9.66l.4-2.95a28.08,28.08,0,0,0-23,11.06l2.74,1.15c.65-2.4,2.41-4.24,3.58-6.38a9.24,9.24,0,0,0,1.08-6.6,9.81,9.81,0,0,0-9.45-7.64c-1.92.05-1.93,3.05,0,3a6.81,6.81,0,0,1,6.68,6.33c.1,1.95-.95,3.6-2,5.17a18.4,18.4,0,0,0-2.78,5.32c-.47,1.76,1.76,2.44,2.74,1.16a25,25,0,0,1,20.37-9.57c1.67.05,2.07-2.59.4-2.95-4.15-.89-6.18-5.07-6.64-9-.58-4.83.12-9.9.37-14.74.08-1.72-2.5-2-2.95-.4-1.92,6.8-4.84,15.88-12.64,17.72-1.88.45-1.08,3.34.8,2.9Z" transform="translate(0 -2.98)"/><path class="cls-1" d="M327.87,360.35c4.5-1.09,6.29-6,7.41-10l-1.47-.2c-.22,4.26-1.51,12.07,4.26,13.37l.2-1.47a14.17,14.17,0,0,0-11.55,5.55l1.38.58c.36-1.29,1.34-2.25,1.92-3.44a4.57,4.57,0,0,0,.41-3.12,4.93,4.93,0,0,0-4.74-3.8.75.75,0,0,0,0,1.5,3.43,3.43,0,0,1,3.37,3.41c-.05,1.87-1.92,3.28-2.41,5.05-.25.89.88,1.21,1.37.58a12.6,12.6,0,0,1,10.25-4.81.76.76,0,0,0,.2-1.48c-2.1-.47-3.12-2.55-3.35-4.53a44.52,44.52,0,0,1,.19-7.39.76.76,0,0,0-1.48-.19c-1,3.43-2.43,8-6.35,8.91a.75.75,0,0,0,.39,1.45Z" transform="translate(0 -2.98)"/><path class="cls-1" d="M462.59,339.17c5-1.19,6.91-6.61,8.15-11l-1.48-.2c-.24,4.67-1.68,13.3,4.66,14.73l.2-1.48a15.6,15.6,0,0,0-12.71,6.12l1.37.58c.4-1.45,1.49-2.51,2.14-3.83a5,5,0,0,0,.44-3.4,5.38,5.38,0,0,0-5.17-4.15.75.75,0,0,0,0,1.5,3.88,3.88,0,0,1,3.81,3.86c0,2.08-2.12,3.65-2.67,5.62-.24.88.88,1.21,1.37.58a14.06,14.06,0,0,1,11.42-5.38.75.75,0,0,0,.2-1.47c-2.36-.53-3.5-2.87-3.76-5.09a49.81,49.81,0,0,1,.2-8.19.75.75,0,0,0-1.47-.19c-1.09,3.83-2.72,8.87-7.1,9.92-.94.23-.54,1.68.4,1.45Z" transform="translate(0 -2.98)"/><path class="cls-1" d="M380,419.87c4.5-1.08,6.28-6,7.41-10l-1.47-.2c-.22,4.25-1.52,12.06,4.26,13.37l.2-1.48a14.21,14.21,0,0,0-11.55,5.56l1.37.58c.36-1.3,1.34-2.26,1.93-3.44a4.6,4.6,0,0,0,.41-3.13,5,5,0,0,0-4.74-3.8.75.75,0,0,0,0,1.5,3.42,3.42,0,0,1,3.36,3.41c0,1.87-1.91,3.29-2.4,5.06-.25.88.88,1.21,1.37.58a12.61,12.61,0,0,1,10.25-4.82.75.75,0,0,0,.2-1.47c-2.1-.47-3.12-2.56-3.35-4.54a44.43,44.43,0,0,1,.19-7.38.76.76,0,0,0-1.48-.2c-1,3.44-2.43,8-6.36,8.92-.93.22-.54,1.67.4,1.44Z" transform="translate(0 -2.98)"/><path class="cls-1" d="M206.43,251.09c8.94-2.11,12.51-12,14.74-19.82l-2.95-.4c-.14,2.85-.3,5.71-.44,8.57a33.44,33.44,0,0,0,.41,8.36c.93,4.39,3.92,8.67,8.51,9.66l.4-2.95a28.07,28.07,0,0,0-23,11.06l2.74,1.15c.64-2.4,2.41-4.24,3.58-6.38a9.24,9.24,0,0,0,1.08-6.6,9.81,9.81,0,0,0-9.45-7.64c-1.92.05-1.93,3.05,0,3a6.81,6.81,0,0,1,6.68,6.33c.1,1.95-1,3.6-2,5.17a18.4,18.4,0,0,0-2.78,5.32c-.48,1.76,1.76,2.44,2.74,1.16a25,25,0,0,1,20.37-9.57c1.67.05,2.07-2.59.4-2.95-4.15-.89-6.18-5.07-6.64-8.95-.58-4.83.11-9.9.36-14.74.09-1.72-2.49-2-2.94-.4-1.93,6.8-4.84,15.88-12.64,17.73-1.88.44-1.09,3.33.79,2.89Z" transform="translate(0 -2.98)"/><path class="cls-1" d="M369.65,370.51c8.93-2.11,12.51-12,14.73-19.83l-2.94-.39c-.15,2.85-.31,5.71-.44,8.56a33,33,0,0,0,.41,8.36c.92,4.4,3.91,8.67,8.51,9.66l.39-2.94a28.1,28.1,0,0,0-23,11.05l2.74,1.16c.65-2.4,2.41-4.24,3.59-6.38a9.23,9.23,0,0,0,1.07-6.6,9.79,9.79,0,0,0-9.44-7.64c-1.93.05-1.94,3.05,0,3a6.8,6.8,0,0,1,6.67,6.32c.1,2-1,3.61-2,5.18a18.18,18.18,0,0,0-2.79,5.32c-.47,1.76,1.76,2.44,2.74,1.16a25,25,0,0,1,20.37-9.57c1.67.05,2.07-2.59.4-2.95-4.15-.89-6.18-5.07-6.64-9-.58-4.83.12-9.9.37-14.73.08-1.72-2.5-2-2.95-.4-1.92,6.8-4.84,15.88-12.64,17.72-1.88.45-1.08,3.34.8,2.9Z" transform="translate(0 -2.98)"/><path class="cls-1" d="M131.34,293c4.49-1.08,6.28-6,7.41-10l-1.48-.2c-.21,4.25-1.51,12.06,4.26,13.36l.2-1.47a14.15,14.15,0,0,0-11.54,5.56l1.37.58c.36-1.3,1.34-2.26,1.93-3.45a4.56,4.56,0,0,0,.4-3.12,4.93,4.93,0,0,0-4.73-3.8.75.75,0,0,0,0,1.5,3.42,3.42,0,0,1,3.36,3.41c0,1.87-1.91,3.29-2.41,5.06-.24.88.89,1.21,1.37.58a12.62,12.62,0,0,1,10.25-4.82.75.75,0,0,0,.2-1.47c-2.1-.48-3.11-2.56-3.34-4.54a45.5,45.5,0,0,1,.18-7.38.75.75,0,0,0-1.47-.2c-1,3.44-2.43,8-6.36,8.92-.94.22-.54,1.67.4,1.44Z" transform="translate(0 -2.98)"/><path class="cls-1" d="M214,325.71c4.5-1.09,6.28-6,7.41-10l-1.47-.2c-.22,4.25-1.52,12.06,4.26,13.36l.2-1.47A14.15,14.15,0,0,0,212.89,333l1.37.57c.36-1.29,1.34-2.25,1.93-3.44a4.57,4.57,0,0,0,.41-3.12,4.94,4.94,0,0,0-4.74-3.8.75.75,0,0,0,0,1.5,3.42,3.42,0,0,1,3.36,3.41c0,1.87-1.91,3.28-2.4,5.06-.25.88.88,1.21,1.37.57a12.6,12.6,0,0,1,10.25-4.81.75.75,0,0,0,.19-1.47c-2.1-.48-3.11-2.56-3.34-4.54a44.4,44.4,0,0,1,.19-7.38.76.76,0,0,0-1.48-.2c-1,3.43-2.43,8-6.36,8.91-.94.23-.54,1.68.4,1.45Z" transform="translate(0 -2.98)"/><path class="cls-1" d="M420.91,72.77c8.94-2.11,12.51-12,14.74-19.82l-2.95-.4q-.22,4.28-.44,8.57a33,33,0,0,0,.41,8.36c.92,4.39,3.91,8.66,8.51,9.66l.4-3a28.1,28.1,0,0,0-23,11.06l2.74,1.15c.65-2.4,2.42-4.24,3.59-6.38a9.24,9.24,0,0,0,1.08-6.6,9.82,9.82,0,0,0-9.45-7.64c-1.93,0-1.94,3,0,3a6.79,6.79,0,0,1,6.67,6.33c.11,2-.95,3.6-2,5.17a18.43,18.43,0,0,0-2.79,5.32c-.47,1.76,1.76,2.44,2.74,1.16a25,25,0,0,1,20.38-9.57c1.67,0,2.07-2.59.4-3-4.15-.89-6.19-5.07-6.65-8.95-.57-4.83.12-9.9.37-14.74.09-1.72-2.49-2-2.95-.4C430.83,59,427.91,68,420.11,69.87c-1.88.45-1.08,3.34.8,2.9Z" transform="translate(0 -2.98)"/><path class="cls-1" d="M441.13,117.68c4.49-1.09,6.28-6,7.4-10l-1.47-.2c-.22,4.26-1.51,12.07,4.26,13.37l.2-1.47A14.14,14.14,0,0,0,440,125l1.37.58c.36-1.29,1.34-2.26,1.92-3.44a4.51,4.51,0,0,0,.41-3.12,4.92,4.92,0,0,0-4.74-3.8.75.75,0,0,0,0,1.5,3.43,3.43,0,0,1,3.37,3.41c0,1.87-1.92,3.28-2.41,5-.24.88.88,1.21,1.37.58a12.58,12.58,0,0,1,10.25-4.81.76.76,0,0,0,.2-1.48c-2.1-.47-3.12-2.55-3.35-4.54a45.54,45.54,0,0,1,.19-7.38.75.75,0,0,0-1.47-.2c-1,3.44-2.43,8-6.36,8.92-.94.23-.54,1.67.4,1.45Z" transform="translate(0 -2.98)"/><path class="cls-1" d="M557.18,156.22c4.49-1.09,6.28-6,7.4-10l-1.47-.2c-.22,4.26-1.51,12.07,4.26,13.37l.2-1.47A14.14,14.14,0,0,0,556,163.5l1.37.58c.36-1.29,1.34-2.25,1.92-3.44a4.51,4.51,0,0,0,.41-3.12,4.92,4.92,0,0,0-4.73-3.8.75.75,0,0,0,0,1.5,3.43,3.43,0,0,1,3.36,3.41c0,1.87-1.91,3.28-2.41,5.05-.24.89.88,1.21,1.37.58a12.61,12.61,0,0,1,10.25-4.81.76.76,0,0,0,.2-1.48c-2.1-.47-3.12-2.55-3.34-4.53a45.63,45.63,0,0,1,.18-7.39.75.75,0,0,0-1.47-.19c-1,3.43-2.43,8-6.36,8.91-.94.23-.54,1.67.4,1.45Z" transform="translate(0 -2.98)"/><path class="cls-1" d="M474.38,215.74c4.5-1.08,6.28-6,7.41-10l-1.48-.2c-.21,4.25-1.51,12.06,4.27,13.37l.2-1.48A14.21,14.21,0,0,0,473.23,223l1.37.58c.36-1.3,1.34-2.26,1.93-3.44a4.6,4.6,0,0,0,.41-3.13,5,5,0,0,0-4.74-3.8.75.75,0,0,0,0,1.5,3.42,3.42,0,0,1,3.36,3.41c0,1.87-1.91,3.29-2.4,5.06-.25.88.88,1.21,1.37.58A12.61,12.61,0,0,1,484.78,219a.75.75,0,0,0,.19-1.47c-2.1-.47-3.11-2.56-3.34-4.54a45.53,45.53,0,0,1,.18-7.38.75.75,0,0,0-1.47-.2c-1,3.44-2.43,8-6.36,8.92-.94.22-.54,1.67.4,1.44Z" transform="translate(0 -2.98)"/><path class="cls-1" d="M393.91,225.9c8.94-2.11,12.51-12,14.74-19.82l-2.95-.4c-.15,2.86-.3,5.71-.44,8.57a33,33,0,0,0,.41,8.36c.92,4.39,3.91,8.67,8.51,9.66l.4-3a28.1,28.1,0,0,0-23,11.06l2.75,1.16c.64-2.41,2.41-4.24,3.58-6.38a9.27,9.27,0,0,0,1.08-6.61,9.82,9.82,0,0,0-9.45-7.64c-1.93.06-1.94,3.06,0,3a6.8,6.8,0,0,1,6.67,6.33c.11,2-.95,3.61-2,5.17a18.35,18.35,0,0,0-2.79,5.33c-.47,1.76,1.77,2.43,2.74,1.15a25,25,0,0,1,20.38-9.57c1.67.05,2.07-2.58.4-2.94-4.15-.9-6.18-5.07-6.65-9-.57-4.83.12-9.9.37-14.74.09-1.71-2.49-2-2.95-.4-1.92,6.8-4.83,15.89-12.64,17.73-1.88.44-1.08,3.33.8,2.89Z" transform="translate(0 -2.98)"/><path class="cls-1" d="M464,166.38c8.93-2.11,12.51-12,14.73-19.83l-2.94-.39c-.15,2.85-.31,5.71-.44,8.56a32.5,32.5,0,0,0,.41,8.36c.92,4.4,3.91,8.67,8.5,9.66l.4-2.94a28.1,28.1,0,0,0-23,11l2.74,1.16c.65-2.4,2.41-4.24,3.58-6.38a9.24,9.24,0,0,0,1.08-6.6,9.79,9.79,0,0,0-9.44-7.64c-1.93.05-1.94,3.05,0,3a6.8,6.8,0,0,1,6.67,6.32c.1,2-.95,3.61-2,5.18a18.4,18.4,0,0,0-2.78,5.32c-.47,1.76,1.76,2.44,2.74,1.16a25,25,0,0,1,20.37-9.57c1.67,0,2.07-2.59.4-3-4.15-.89-6.18-5.07-6.64-9-.58-4.83.12-9.9.37-14.73.08-1.72-2.5-2-2.95-.4-1.92,6.8-4.84,15.88-12.64,17.72-1.88.45-1.08,3.34.8,2.9Z" transform="translate(0 -2.98)"/><path class="cls-1" d="M505,189c4.5-1.09,6.29-6,7.41-10l-1.47-.2c-.22,4.26-1.51,12.07,4.26,13.37l.2-1.47a14.17,14.17,0,0,0-11.55,5.55l1.38.58c.36-1.29,1.34-2.26,1.92-3.44a4.59,4.59,0,0,0,.41-3.13,4.93,4.93,0,0,0-4.74-3.79.75.75,0,0,0,0,1.5,3.43,3.43,0,0,1,3.37,3.41c0,1.87-1.92,3.28-2.41,5.05-.25.88.88,1.21,1.37.58a12.57,12.57,0,0,1,10.25-4.81.76.76,0,0,0,.2-1.48c-2.1-.47-3.12-2.55-3.35-4.54a44.43,44.43,0,0,1,.19-7.38.75.75,0,0,0-1.47-.2c-1,3.44-2.44,8-6.36,8.92-.94.23-.54,1.67.39,1.45Z" transform="translate(0 -2.98)"/><path class="cls-1" d="M639.88,189c4.49-1.09,6.28-6,7.41-10l-1.48-.2c-.22,4.26-1.51,12.07,4.26,13.37l.2-1.47a14.15,14.15,0,0,0-11.54,5.55l1.37.58c.36-1.29,1.34-2.26,1.92-3.44a4.53,4.53,0,0,0,.41-3.13,4.92,4.92,0,0,0-4.73-3.79.75.75,0,0,0,0,1.5,3.42,3.42,0,0,1,3.36,3.41c0,1.87-1.91,3.28-2.41,5.05-.24.88.89,1.21,1.37.58a12.58,12.58,0,0,1,10.25-4.81.76.76,0,0,0,.2-1.48c-2.1-.47-3.11-2.55-3.34-4.54a45.53,45.53,0,0,1,.18-7.38.75.75,0,0,0-1.47-.2c-1,3.44-2.43,8-6.36,8.92-.94.23-.54,1.67.4,1.45Z" transform="translate(0 -2.98)"/><path class="cls-1" d="M557.08,248.49c4.5-1.09,6.28-6,7.41-10l-1.47-.2c-.22,4.25-1.52,12.06,4.26,13.36l.2-1.47a14.15,14.15,0,0,0-11.55,5.56l1.37.58c.36-1.3,1.34-2.26,1.93-3.45a4.57,4.57,0,0,0,.41-3.12,4.94,4.94,0,0,0-4.74-3.8.75.75,0,0,0,0,1.5,3.42,3.42,0,0,1,3.36,3.41c0,1.87-1.91,3.29-2.4,5.06-.25.88.88,1.21,1.37.58a12.61,12.61,0,0,1,10.25-4.82.75.75,0,0,0,.2-1.47c-2.1-.48-3.12-2.56-3.35-4.54a44.4,44.4,0,0,1,.19-7.38.76.76,0,0,0-1.48-.2c-1,3.44-2.43,8-6.36,8.91-.93.23-.54,1.68.4,1.45Z" transform="translate(0 -2.98)"/><path class="cls-1" d="M322.08,81.63c8.94-2.11,12.51-11.95,14.74-19.82l-2.95-.4c-.14,2.86-.3,5.71-.44,8.57a33,33,0,0,0,.41,8.36c.93,4.39,3.91,8.67,8.51,9.66l.4-3a28.07,28.07,0,0,0-23,11.06l2.74,1.16c.64-2.41,2.41-4.24,3.58-6.38a9.27,9.27,0,0,0,1.08-6.61,9.81,9.81,0,0,0-9.45-7.64c-1.93.06-1.93,3.06,0,3A6.82,6.82,0,0,1,324.42,86c.1,2-1,3.61-2,5.17a18.6,18.6,0,0,0-2.79,5.33c-.47,1.76,1.77,2.43,2.75,1.15a25,25,0,0,1,20.37-9.57c1.67,0,2.07-2.58.4-2.94-4.15-.9-6.18-5.07-6.65-9-.57-4.83.12-9.9.37-14.74.09-1.71-2.49-2-2.94-.4-1.93,6.8-4.84,15.89-12.65,17.73-1.87.44-1.08,3.33.8,2.89Z" transform="translate(0 -2.98)"/><path class="cls-1" d="M546.74,199.12c8.93-2.11,12.51-12,14.73-19.82l-2.94-.4c-.15,2.86-.31,5.72-.44,8.57a33,33,0,0,0,.41,8.36c.92,4.4,3.91,8.67,8.51,9.66l.4-2.94a28.1,28.1,0,0,0-23,11l2.74,1.16c.65-2.4,2.41-4.24,3.59-6.38a9.27,9.27,0,0,0,1.07-6.61,9.79,9.79,0,0,0-9.44-7.63c-1.93.05-1.94,3.05,0,3a6.8,6.8,0,0,1,6.67,6.32c.1,2-1,3.61-2,5.17a18.24,18.24,0,0,0-2.79,5.33c-.47,1.76,1.76,2.43,2.74,1.16a25,25,0,0,1,20.38-9.57c1.66,0,2.06-2.59.39-3-4.15-.9-6.18-5.07-6.64-9-.58-4.83.12-9.9.37-14.74.08-1.71-2.5-2-2.95-.4-1.92,6.8-4.84,15.89-12.64,17.73-1.88.44-1.08,3.34.8,2.89Z" transform="translate(0 -2.98)"/><path class="cls-1" d="M308.91,148.79c4.49-1.08,6.28-6,7.4-10l-1.47-.2c-.22,4.25-1.51,12.06,4.26,13.37l.2-1.48a14.15,14.15,0,0,0-11.54,5.56l1.37.58c.36-1.3,1.34-2.26,1.92-3.44a4.54,4.54,0,0,0,.41-3.13,4.93,4.93,0,0,0-4.74-3.8.75.75,0,0,0,0,1.5,3.43,3.43,0,0,1,3.37,3.41c0,1.87-1.92,3.29-2.41,5.06-.24.88.88,1.21,1.37.58A12.62,12.62,0,0,1,319.3,152a.75.75,0,0,0,.2-1.47c-2.1-.47-3.12-2.56-3.35-4.54a45.51,45.51,0,0,1,.19-7.38.75.75,0,0,0-1.47-.2c-1,3.44-2.43,8-6.36,8.92-.94.22-.54,1.67.4,1.44Z" transform="translate(0 -2.98)"/><path class="cls-1" d="M391.61,181.54c4.49-1.09,6.28-6,7.41-10l-1.48-.2c-.22,4.25-1.51,12.06,4.26,13.36l.2-1.47a14.13,14.13,0,0,0-11.54,5.56l1.37.58c.36-1.3,1.34-2.26,1.92-3.45a4.51,4.51,0,0,0,.41-3.12,4.93,4.93,0,0,0-4.73-3.8.75.75,0,0,0,0,1.5,3.43,3.43,0,0,1,3.36,3.41c0,1.87-1.91,3.29-2.41,5.06-.24.88.89,1.21,1.37.57A12.64,12.64,0,0,1,402,184.77a.75.75,0,0,0,.2-1.47c-2.1-.48-3.11-2.56-3.34-4.54a45.5,45.5,0,0,1,.18-7.38.75.75,0,0,0-1.47-.2c-1,3.44-2.43,8-6.36,8.91-.94.23-.54,1.68.4,1.45Z" transform="translate(0 -2.98)"/><path class="cls-1" d="M31.93,146c11-2.57,15.39-14.8,18.12-24.46l-2.94-.4c-.18,3.49-.37,7-.54,10.48A41.78,41.78,0,0,0,47,142c1.1,5.39,4.72,10.71,10.38,11.9l.4-2.94a34.58,34.58,0,0,0-28.32,13.6l2.74,1.16c.79-3,3-5.31,4.46-8A11.14,11.14,0,0,0,38,149.69c-1.17-5.16-6-9.41-11.42-9.23-1.93.06-1.94,3.06,0,3,4.35-.15,8.24,3.62,8.67,7.9.24,2.43-.9,4.53-2.19,6.5-1.47,2.25-3.07,4.41-3.76,7-.47,1.76,1.76,2.44,2.74,1.16A31.48,31.48,0,0,1,57.81,154c1.66.05,2.07-2.6.4-2.95-5.22-1.1-7.88-6.33-8.52-11.21a49.07,49.07,0,0,1-.07-9.15q.24-4.78.49-9.55c.08-1.72-2.5-2-3-.4-2.43,8.59-6.15,20.07-16,22.37-1.87.43-1.08,3.33.8,2.89Z" transform="translate(0 -2.98)"/><path class="cls-1" d="M576.34,307.13c4.95-1.19,6.91-6.6,8.14-11L583,296c-.24,4.66-1.68,13.29,4.66,14.72l.2-1.47a15.59,15.59,0,0,0-12.71,6.11l1.37.58c.4-1.44,1.49-2.51,2.14-3.83a5,5,0,0,0,.44-3.4,5.38,5.38,0,0,0-5.17-4.15.75.75,0,0,0,0,1.5,3.88,3.88,0,0,1,3.81,3.86c0,2.09-2.12,3.65-2.67,5.62-.24.88.88,1.21,1.37.58a14,14,0,0,1,11.42-5.37.76.76,0,0,0,.2-1.48c-2.36-.53-3.5-2.86-3.76-5.09a49.72,49.72,0,0,1,.2-8.18.75.75,0,0,0-1.47-.2c-1.09,3.83-2.72,8.87-7.1,9.93-.94.22-.54,1.67.4,1.44Z" transform="translate(0 -2.98)"/><path class="cls-1" d="M98.93,245.34c4.5-1.09,6.28-6,7.41-10l-1.48-.2c-.21,4.26-1.51,12.07,4.26,13.37l.2-1.47a14.16,14.16,0,0,0-11.54,5.55l1.37.58c.36-1.29,1.34-2.26,1.93-3.44a4.65,4.65,0,0,0,.41-3.13,4.94,4.94,0,0,0-4.74-3.79.75.75,0,0,0,0,1.5,3.42,3.42,0,0,1,3.36,3.41c0,1.87-1.91,3.28-2.41,5.05-.24.88.89,1.21,1.38.58a12.55,12.55,0,0,1,10.24-4.81.76.76,0,0,0,.2-1.48c-2.1-.47-3.11-2.55-3.34-4.54a45.53,45.53,0,0,1,.18-7.38.75.75,0,0,0-1.47-.2c-1,3.44-2.43,8-6.36,8.92-.94.23-.54,1.67.4,1.45Z" transform="translate(0 -2.98)"/><path class="cls-1" d="M16.13,304.86c4.5-1.09,6.28-6,7.41-10l-1.47-.2c-.22,4.25-1.51,12.06,4.26,13.36l.2-1.47A14.15,14.15,0,0,0,15,312.15l1.37.58c.37-1.3,1.34-2.26,1.93-3.45a4.57,4.57,0,0,0,.41-3.12,4.94,4.94,0,0,0-4.74-3.8.75.75,0,0,0,0,1.5,3.43,3.43,0,0,1,3.37,3.41c-.05,1.87-1.92,3.29-2.41,5.06-.25.88.88,1.21,1.37.58a12.61,12.61,0,0,1,10.25-4.82.75.75,0,0,0,.2-1.47c-2.1-.48-3.12-2.56-3.35-4.54a44.4,44.4,0,0,1,.19-7.38.76.76,0,0,0-1.48-.2c-1,3.44-2.43,8-6.36,8.91-.93.23-.54,1.68.4,1.45Z" transform="translate(0 -2.98)"/><path class="cls-1" d="M5.79,255.49c8.94-2.11,12.51-12,14.73-19.82l-2.94-.4c-.15,2.86-.31,5.72-.44,8.57a33,33,0,0,0,.41,8.36c.92,4.4,3.91,8.67,8.51,9.66l.4-2.94A28.12,28.12,0,0,0,3.49,270l2.74,1.16c.65-2.4,2.41-4.24,3.59-6.38a9.27,9.27,0,0,0,1.07-6.61,9.79,9.79,0,0,0-9.44-7.63c-1.93.05-1.94,3.05,0,3a6.8,6.8,0,0,1,6.67,6.32c.11,2-.95,3.61-2,5.17a18.24,18.24,0,0,0-2.79,5.33c-.47,1.76,1.76,2.43,2.74,1.16a25,25,0,0,1,20.38-9.57c1.66,0,2.07-2.59.4-2.95-4.15-.9-6.19-5.07-6.65-9-.57-4.83.12-9.9.37-14.74.09-1.71-2.5-2-2.95-.4-1.92,6.8-4.84,15.89-12.64,17.73-1.88.44-1.08,3.34.8,2.89Z" transform="translate(0 -2.98)"/><path class="cls-1" d="M46.72,278.08c4.49-1.08,6.28-6,7.4-10l-1.47-.2c-.22,4.25-1.51,12.06,4.26,13.37l.2-1.48a14.15,14.15,0,0,0-11.54,5.56l1.37.58c.36-1.3,1.34-2.26,1.92-3.44a4.54,4.54,0,0,0,.41-3.13,4.94,4.94,0,0,0-4.73-3.8.75.75,0,0,0,0,1.5,3.43,3.43,0,0,1,3.36,3.41c0,1.87-1.91,3.29-2.41,5.06-.24.88.88,1.21,1.37.58a12.62,12.62,0,0,1,10.25-4.82.75.75,0,0,0,.2-1.47c-2.1-.47-3.12-2.56-3.34-4.54a45.53,45.53,0,0,1,.18-7.38.75.75,0,0,0-1.47-.2c-1,3.44-2.43,8-6.36,8.92-.94.22-.54,1.67.4,1.44Z" transform="translate(0 -2.98)"/><path class="cls-1" d="M181.63,278.08c4.5-1.08,6.28-6,7.41-10l-1.47-.2c-.22,4.25-1.52,12.06,4.26,13.37l.2-1.48a14.18,14.18,0,0,0-11.55,5.56l1.37.58c.36-1.3,1.34-2.26,1.93-3.44a4.6,4.6,0,0,0,.41-3.13,5,5,0,0,0-4.74-3.8.75.75,0,0,0,0,1.5,3.42,3.42,0,0,1,3.36,3.41c0,1.87-1.91,3.29-2.4,5.06-.25.88.88,1.21,1.37.58A12.61,12.61,0,0,1,192,281.31a.75.75,0,0,0,.2-1.47c-2.11-.47-3.12-2.56-3.35-4.54a44.43,44.43,0,0,1,.19-7.38.76.76,0,0,0-1.48-.2c-1,3.44-2.43,8-6.36,8.92-.94.22-.54,1.67.4,1.44Z" transform="translate(0 -2.98)"/><path class="cls-1" d="M98.84,337.61c4.49-1.09,6.28-6,7.4-10l-1.47-.2c-.22,4.25-1.51,12.06,4.26,13.36l.2-1.47a14.12,14.12,0,0,0-11.54,5.56l1.37.57c.36-1.29,1.34-2.25,1.92-3.44a4.57,4.57,0,0,0,.41-3.12,4.93,4.93,0,0,0-4.74-3.8.75.75,0,0,0,0,1.5A3.43,3.43,0,0,1,100,340c0,1.87-1.92,3.28-2.41,5.06-.25.88.88,1.21,1.37.57a12.61,12.61,0,0,1,10.25-4.81.75.75,0,0,0,.2-1.47c-2.1-.48-3.12-2.56-3.35-4.54a44.4,44.4,0,0,1,.19-7.38.75.75,0,0,0-1.47-.2c-1,3.43-2.44,8-6.36,8.91-.94.23-.54,1.68.4,1.45Z" transform="translate(0 -2.98)"/><path class="cls-1" d="M49,397.28c8.94-2.11,12.51-11.95,14.73-19.82l-2.94-.4c-.15,2.86-.31,5.72-.44,8.57a33,33,0,0,0,.41,8.36c.92,4.4,3.91,8.67,8.51,9.66l.4-2.94a28.12,28.12,0,0,0-23,11.05l2.74,1.16c.65-2.4,2.41-4.24,3.59-6.38a9.27,9.27,0,0,0,1.07-6.61,9.79,9.79,0,0,0-9.44-7.63c-1.93.05-1.94,3.05,0,3a6.8,6.8,0,0,1,6.67,6.32c.1,2-1,3.61-2,5.17a18.24,18.24,0,0,0-2.79,5.33c-.47,1.76,1.76,2.43,2.74,1.16a25,25,0,0,1,20.38-9.57c1.66,0,2.07-2.59.39-2.95-4.15-.9-6.18-5.07-6.64-9-.58-4.83.12-9.9.37-14.74.09-1.71-2.5-2-3-.4-1.92,6.8-4.84,15.89-12.64,17.73-1.88.44-1.08,3.34.8,2.89Z" transform="translate(0 -2.98)"/><path class="cls-1" d="M419.53,457.72c4.5-1.09,6.29-6,7.41-10l-1.47-.2c-.22,4.25-1.51,12.06,4.26,13.36l.2-1.47A14.15,14.15,0,0,0,418.38,465l1.38.58c.36-1.3,1.34-2.26,1.92-3.45a4.57,4.57,0,0,0,.41-3.12,4.94,4.94,0,0,0-4.74-3.8.75.75,0,0,0,0,1.5,3.43,3.43,0,0,1,3.37,3.41c-.05,1.87-1.92,3.28-2.41,5.06-.25.88.88,1.21,1.37.57A12.6,12.6,0,0,1,429.93,461a.75.75,0,0,0,.2-1.47c-2.1-.48-3.12-2.56-3.35-4.54a44.4,44.4,0,0,1,.19-7.38.75.75,0,0,0-1.47-.2c-1,3.43-2.44,8-6.36,8.91a.75.75,0,0,0,.39,1.45Z" transform="translate(0 -2.98)"/><path class="cls-1" d="M513.92,253.59c4.5-1.09,6.28-6,7.41-10l-1.47-.2c-.22,4.25-1.51,12.06,4.26,13.36l.2-1.47a14.15,14.15,0,0,0-11.55,5.56l1.37.58c.36-1.3,1.34-2.26,1.93-3.45a4.57,4.57,0,0,0,.41-3.12,4.94,4.94,0,0,0-4.74-3.8.75.75,0,0,0,0,1.5,3.43,3.43,0,0,1,3.37,3.41c-.05,1.87-1.92,3.28-2.41,5.06-.25.88.88,1.21,1.37.57a12.6,12.6,0,0,1,10.25-4.81.75.75,0,0,0,.2-1.47c-2.1-.48-3.12-2.56-3.35-4.54a44.4,44.4,0,0,1,.19-7.38.76.76,0,0,0-1.48-.2c-1,3.43-2.43,8-6.36,8.91-.93.23-.54,1.68.4,1.45Z" transform="translate(0 -2.98)"/><path class="cls-1" d="M431.13,313.12c4.49-1.09,6.28-6,7.4-10l-1.47-.2c-.22,4.26-1.51,12.07,4.26,13.37l.2-1.47A14.14,14.14,0,0,0,430,320.4l1.37.58c.36-1.29,1.34-2.26,1.92-3.44a4.51,4.51,0,0,0,.41-3.12,4.92,4.92,0,0,0-4.73-3.8.75.75,0,0,0,0,1.5,3.43,3.43,0,0,1,3.36,3.41c0,1.87-1.92,3.28-2.41,5.05-.24.88.88,1.21,1.37.58a12.58,12.58,0,0,1,10.25-4.81.76.76,0,0,0,.2-1.48c-2.1-.47-3.12-2.55-3.34-4.54a45.53,45.53,0,0,1,.18-7.38.75.75,0,0,0-1.47-.2c-1,3.44-2.43,8-6.36,8.92-.94.23-.54,1.67.4,1.45Z" transform="translate(0 -2.98)"/><path class="cls-1" d="M461.92,287.35c4.95-1.19,6.91-6.61,8.15-11l-1.47-.19c-.24,4.66-1.69,13.29,4.66,14.72l.19-1.47a15.58,15.58,0,0,0-12.71,6.11l1.37.58c.4-1.45,1.49-2.51,2.14-3.83a5,5,0,0,0,.45-3.4,5.39,5.39,0,0,0-5.17-4.15.75.75,0,0,0,0,1.5,3.88,3.88,0,0,1,3.8,3.86c0,2.08-2.12,3.65-2.67,5.62-.24.88.89,1.21,1.38.58a14,14,0,0,1,11.41-5.37.76.76,0,0,0,.2-1.48c-2.36-.53-3.5-2.87-3.76-5.09a49.67,49.67,0,0,1,.21-8.18.76.76,0,0,0-1.48-.2c-1.08,3.83-2.72,8.87-7.1,9.93-.93.22-.54,1.67.4,1.44Z" transform="translate(0 -2.98)"/><path class="cls-1" d="M611,316.1c4.49-1.09,6.28-6,7.41-10l-1.48-.2c-.22,4.25-1.51,12.06,4.26,13.36l.2-1.47a14.13,14.13,0,0,0-11.54,5.56l1.37.58c.36-1.3,1.34-2.26,1.93-3.45a4.56,4.56,0,0,0,.4-3.12,4.93,4.93,0,0,0-4.73-3.8.75.75,0,0,0,0,1.5,3.43,3.43,0,0,1,3.36,3.41c0,1.87-1.91,3.29-2.41,5.06-.24.88.89,1.21,1.37.58a12.62,12.62,0,0,1,10.25-4.82.75.75,0,0,0,.2-1.47c-2.1-.48-3.11-2.56-3.34-4.54a45.5,45.5,0,0,1,.18-7.38.75.75,0,0,0-1.47-.2c-1,3.44-2.43,8-6.36,8.91-.94.23-.54,1.68.4,1.45Z" transform="translate(0 -2.98)"/><path class="cls-1" d="M535.5,386.23c5-1.2,6.9-6.61,8.14-11l-1.47-.2c-.24,4.66-1.68,13.29,4.66,14.72l.2-1.47a15.59,15.59,0,0,0-12.71,6.11l1.37.58c.4-1.44,1.49-2.51,2.14-3.83a5,5,0,0,0,.44-3.4,5.37,5.37,0,0,0-5.17-4.14.75.75,0,0,0,0,1.5,3.88,3.88,0,0,1,3.81,3.85c0,2.09-2.12,3.65-2.67,5.62-.25.88.88,1.21,1.37.58A14.05,14.05,0,0,1,547,389.8a.75.75,0,0,0,.2-1.47c-2.36-.54-3.5-2.87-3.76-5.1a48.64,48.64,0,0,1,.2-8.18.75.75,0,0,0-1.47-.2c-1.09,3.83-2.72,8.87-7.1,9.93-.94.23-.54,1.67.4,1.45Z" transform="translate(0 -2.98)"/><path class="cls-1" d="M524,331.48c9.84-2.31,13.76-13.19,16.21-21.84l-3-.39c-.17,3.29-.36,6.58-.5,9.87a34.49,34.49,0,0,0,.49,9c1,4.76,4.3,9.39,9.28,10.45l.4-2.94a30.9,30.9,0,0,0-25.29,12.16l2.74,1.15c.7-2.62,2.62-4.65,3.92-7a10.16,10.16,0,0,0,1.26-7.24c-1-4.7-5.45-8.55-10.32-8.41-1.93.06-1.94,3.06,0,3a7.72,7.72,0,0,1,7.55,7.1c.12,2.12-.94,3.93-2.07,5.64a21,21,0,0,0-3.23,6.1c-.47,1.75,1.76,2.43,2.74,1.15A27.8,27.8,0,0,1,547,338.59c1.67.05,2.07-2.59.4-2.95-4.54-1-6.85-5.49-7.44-9.75a43.86,43.86,0,0,1-.08-7.94l.45-8.7c.09-1.72-2.49-2-2.95-.4-2.14,7.57-5.41,17.7-14.11,19.74-1.88.44-1.08,3.33.8,2.89Z" transform="translate(0 -2.98)"/></g></g></svg>